# xmcd
#
# Track frame offsets: 
#        150
#        12388
#        25622
#        38534
#        51323
#        64764
#        77589
#        92189
#        105076
#        117798
#        131069
#        144742
#        158239
#        170823
#        185953
#        199548
#        212933
#        225512
#        238833
#        253090
#        266182
#        278567
#        291619
#        305681
#
# Disc length: 4254 seconds
#
# Revision: 2
# Processed by: cddbd v1.5.2PL0 Copyright (c) Steve Scherf et al.
# Submitted via: ExactAudioCopy v1.0b4
#
DISCID=65109c18
DTITLE=Peter Chatman - This Life I'm Living
DYEAR=1900
DGENRE=
TTITLE0=Blues At Midnight
TTITLE1=You Didn't Mean Me No Good
TTITLE2=This Life I'm Living
TTITLE3=Maybe I'll Loan You A Dime
TTITLE4=You Got To Help Me Some
TTITLE5=Me, Mayself, And I
TTITLE6=Lend Me Your Love
TTITLE7=Diggin' My Potatoes No. 2
TTITLE8=You Gonna Worry Too
TTITLE9=Whiskey Store Blues
TTITLE10=Caught The Old Coon At Last
TTITLE11=Two Of A Kind
TTITLE12=Blue Evening Blues
TTITLE13=Beer Drinking Woman
TTITLE14=Miss Ora Lee Blues
TTITLE15=Last Pair Of Shoes Blues
TTITLE16=The Jive Blues
TTITLE17=Shelby County Blues
TTITLE18=Grinder Man Blues
TTITLE19=Empty Room Blues
TTITLE20=Old Taylor
TTITLE21=Jasper's Gal
TTITLE22=I Believe I'll Settle Down
TTITLE23=I See My Great Mistake
EXTD=
EXTT0=
EXTT1=
EXTT2=
EXTT3=
EXTT4=
EXTT5=
EXTT6=
EXTT7=
EXTT8=
EXTT9=
EXTT10=
EXTT11=
EXTT12=
EXTT13=
EXTT14=
EXTT15=
EXTT16=
EXTT17=
EXTT18=
EXTT19=
EXTT20=
EXTT21=
EXTT22=
EXTT23=
PLAYORDER=
